# xmcd CD database file
#
# Track frame offsets:
#	150
#	19499
#	34615
#	54222
#	79117
#	108628
#	124770
#	142355
#	159126
#	190623
#	219260
#	244402
#	258545
#	272309
#
# Disc length: 3865 seconds
#
# Revision: 1
# Processed by: cddbd v1.5.2PL0 Copyright (c) Steve Scherf et al.
# Submitted via: CDex 1.70beta2
#
DISCID=bf0f170e
DTITLE=Pierre Moerlen´s Gong - Tribute
DYEAR=2011
DGENRE=Jazz
TTITLE0=Un Patient
TTITLE1=Septembre 02
TTITLE2=Contempop
TTITLE3=Construction Metallique
TTITLE4=A Pierre Moerlen
TTITLE5=Le Duel Massam
TTITLE6=Doc Jungle
TTITLE7=Back Stage
TTITLE8=28 Fevrier
TTITLE9=La Valse du crs
TTITLE10=Mister Marco
TTITLE11=05 01 03
TTITLE12=Mon Ami Bubu
TTITLE13=Contempop (Bonustrack)
EXTD=YEAR: 2011
EXTT0=
EXTT1=
EXTT2=
EXTT3=
EXTT4=
EXTT5=
EXTT6=
EXTT7=
EXTT8=
EXTT9=
EXTT10=
EXTT11=
EXTT12=
EXTT13=
PLAYORDER=
